<svg width="97" height="93" viewBox="0 0 97 93" fill="none" xmlns="http://www.w3.org/2000/svg">
<rect width="97" height="93" rx="16" fill="#14142B"/>
<path d="M29.9062 70.8516V58.3516C32.1719 60.2526 34.6328 61.6849 37.2891 62.6484C39.9453 63.5859 42.6276 64.0547 45.3359 64.0547C46.9245 64.0547 48.3047 63.9115 49.4766 63.625C50.6745 63.3385 51.6641 62.9479 52.4453 62.4531C53.2526 61.9323 53.8516 61.3333 54.2422 60.6562C54.6328 59.9531 54.8281 59.1979 54.8281 58.3906C54.8281 57.2969 54.5156 56.3203 53.8906 55.4609C53.2656 54.6016 52.4062 53.8073 51.3125 53.0781C50.2448 52.349 48.9688 51.6458 47.4844 50.9688C46 50.2917 44.3984 49.6016 42.6797 48.8984C38.3047 47.0755 35.0365 44.849 32.875 42.2188C30.7396 39.5885 29.6719 36.4115 29.6719 32.6875C29.6719 29.7708 30.2578 27.2708 31.4297 25.1875C32.6016 23.0781 34.1901 21.3464 36.1953 19.9922C38.2266 18.638 40.5703 17.6484 43.2266 17.0234C45.8828 16.3724 48.6953 16.0469 51.6641 16.0469C54.5807 16.0469 57.1589 16.2292 59.3984 16.5938C61.6641 16.9323 63.7474 17.4661 65.6484 18.1953V29.875C64.7109 29.224 63.6823 28.651 62.5625 28.1562C61.4688 27.6615 60.3359 27.2578 59.1641 26.9453C57.9922 26.6068 56.8203 26.3594 55.6484 26.2031C54.5026 26.0469 53.4089 25.9688 52.3672 25.9688C50.9349 25.9688 49.6328 26.112 48.4609 26.3984C47.2891 26.6589 46.2995 27.0365 45.4922 27.5312C44.6849 28.026 44.0599 28.625 43.6172 29.3281C43.1745 30.0052 42.9531 30.7734 42.9531 31.6328C42.9531 32.5703 43.2005 33.4167 43.6953 34.1719C44.1901 34.901 44.8932 35.6042 45.8047 36.2812C46.7161 36.9323 47.8229 37.5833 49.125 38.2344C50.4271 38.8594 51.8984 39.5104 53.5391 40.1875C55.7786 41.125 57.7839 42.1276 59.5547 43.1953C61.3516 44.237 62.888 45.4219 64.1641 46.75C65.4401 48.0781 66.4167 49.6016 67.0938 51.3203C67.7708 53.013 68.1094 54.9922 68.1094 57.2578C68.1094 60.3828 67.5104 63.013 66.3125 65.1484C65.1406 67.2578 63.5391 68.9766 61.5078 70.3047C59.4766 71.6068 57.1068 72.5443 54.3984 73.1172C51.7161 73.6901 48.8776 73.9766 45.8828 73.9766C42.8099 73.9766 39.8802 73.7161 37.0938 73.1953C34.3333 72.6745 31.9375 71.8932 29.9062 70.8516Z" fill="white"/>
</svg>
