<svg width="520" height="512" viewBox="0 0 520 512" fill="none" xmlns="http://www.w3.org/2000/svg">
<g filter="url(#filter0_d_505_632)">
<path d="M435.543 337.214C439.945 334.686 442.666 330.002 442.682 324.926L442.938 242.619C442.955 237.542 445.676 232.859 450.078 230.331L494.695 204.702C499.095 202.174 504.51 202.184 508.902 204.726C513.294 207.268 516 211.958 516 217.033V366.669C516 371.761 513.276 376.464 508.86 379L340.479 475.714C336.102 478.226 330.723 478.231 326.341 475.728L194.199 400.149C189.768 397.618 187.033 392.907 187.031 387.804V312.353C187.031 312.267 187.13 312.211 187.216 312.253C187.287 312.296 187.386 312.253 187.386 312.154V312.068C187.386 312.011 187.415 311.954 187.472 311.926L296.303 249.403C296.403 249.347 296.36 249.19 296.246 249.19C296.184 249.19 296.133 249.139 296.133 249.076L296.346 175.104C296.366 170.013 293.663 165.299 289.259 162.745C284.855 160.19 279.421 160.185 275.012 162.731L194.128 209.338C189.735 211.868 184.327 211.868 179.934 209.338L98.7938 162.617C94.3942 160.084 88.9779 160.088 84.582 162.627C80.186 165.167 77.4771 169.857 77.4741 174.934V308.626C77.4775 313.698 74.7804 318.387 70.3953 320.934C66.0102 323.482 60.6005 323.501 56.197 320.986L11.1682 295.243C6.7283 292.707 3.99147 287.982 4.00002 282.869L4.39827 49.1917C4.4093 44.1218 7.11828 39.4411 11.5088 36.9059C15.8992 34.3707 21.3073 34.3643 25.7038 36.8891L179.948 125.482C184.334 128.001 189.728 128.001 194.114 125.482L348.315 36.8891C352.718 34.3605 358.136 34.371 362.529 36.9166C366.922 39.4623 369.625 44.1569 369.621 49.2343V282.969C369.623 288.058 366.906 292.76 362.495 295.3L281.739 341.808C277.324 344.353 274.608 349.066 274.62 354.162C274.632 359.259 277.369 363.959 281.796 366.484L326.341 391.843C330.722 394.337 336.094 394.326 340.464 391.814L435.543 337.214ZM444.887 127.544C444.891 132.665 447.647 137.388 452.103 139.91C456.56 142.433 462.028 142.365 466.42 139.733L509.088 114.132C513.372 111.565 515.996 106.938 516 101.943V49.7748C515.991 44.6568 513.233 39.9384 508.777 37.4195C504.322 34.9006 498.857 34.9696 494.467 37.6002L451.799 63.2009C447.515 65.7683 444.891 70.3949 444.887 75.3897V127.558V127.544Z" fill="#007FFF"/>
</g>
<defs>
<filter id="filter0_d_505_632" x="0" y="0" width="520" height="520" filterUnits="userSpaceOnUse" color-interpolation-filters="sRGB">
<feFlood flood-opacity="0" result="BackgroundImageFix"/>
<feColorMatrix in="SourceAlpha" type="matrix" values="0 0 0 0 0 0 0 0 0 0 0 0 0 0 0 0 0 0 127 0" result="hardAlpha"/>
<feOffset dy="4"/>
<feGaussianBlur stdDeviation="2"/>
<feComposite in2="hardAlpha" operator="out"/>
<feColorMatrix type="matrix" values="0 0 0 0 0 0 0 0 0 0 0 0 0 0 0 0 0 0 0.25 0"/>
<feBlend mode="normal" in2="BackgroundImageFix" result="effect1_dropShadow_505_632"/>
<feBlend mode="normal" in="SourceGraphic" in2="effect1_dropShadow_505_632" result="shape"/>
</filter>
</defs>
</svg>
